<svg width="25" height="25" viewBox="0 0 25 25" fill="none" xmlns="http://www.w3.org/2000/svg">
<g clip-path="url(#clip0_204_19)">
<path d="M9.58815 7.0514L17.8065 11.6746C17.8654 11.7078 17.9143 11.7553 17.9482 11.8124C17.9821 11.8695 18 11.9342 18 12C18 12.0658 17.9821 12.1305 17.9482 12.1876C17.9143 12.2447 17.8654 12.2922 17.8065 12.3254L9.58815 16.9486C9.5286 16.9821 9.46093 16.9998 9.39199 17C9.32305 17.0002 9.25529 16.9827 9.19558 16.9495C9.13587 16.9163 9.08633 16.8684 9.05199 16.8108C9.01764 16.7531 8.99971 16.6878 9 16.6213V7.37721C8.99998 7.31085 9.01812 7.24567 9.05258 7.18824C9.08704 7.13081 9.1366 7.08316 9.19626 7.05011C9.25593 7.01706 9.32358 6.99978 9.39238 7C9.46119 7.00023 9.52872 7.01796 9.58815 7.0514Z" fill="#293FCC"/>
<circle cx="13" cy="12" r="11.5" stroke="#293FCC"/>
</g>
<defs>
<clipPath id="clip0_204_19">
<rect width="24" height="24" fill="white" transform="translate(1)"/>
</clipPath>
</defs>
</svg>
